<svg width="89" height="20" viewBox="0 0 89 20" fill="none" xmlns="http://www.w3.org/2000/svg">
<g clip-path="url(#clip0_7124_1011)">
<path d="M20.0253 9.57919C20.0253 9.16184 19.9808 8.7494 19.8902 8.34187C19.886 8.29554 19.8856 8.24886 19.8769 8.20322C19.6045 6.76618 19.0432 5.45129 18.1994 4.25784C17.7259 3.58881 17.1881 2.97665 16.5531 2.45469C16.5114 2.41468 16.4717 2.3722 16.4275 2.3357C14.6699 0.886717 12.6555 0.103608 10.3778 0.00918542C9.74137 -0.0171405 9.10639 0.0109405 8.47843 0.132391C8.42613 0.136603 8.37313 0.136603 8.32188 0.14608C6.98101 0.39916 5.72123 0.863199 4.58289 1.6249C2.14511 3.2557 0.636807 5.51236 0.141879 8.40506C-0.191583 10.3542 0.0646564 12.2451 0.890589 14.055C2.76359 18.159 7.26006 20.8681 12.1304 19.7449C16.035 18.8442 18.5472 16.3632 19.7066 12.5284C19.9966 11.5694 20.0748 10.5792 20.0253 9.57919ZM18.9748 12.3178C17.9137 15.7339 15.7153 18.0674 12.2227 18.9175C8.33065 19.8646 5.11117 18.5935 2.64635 15.4611C1.36902 13.838 0.723507 11.9629 0.761416 9.88914C0.808803 7.31095 1.81516 5.13327 3.66078 3.35153C4.91109 2.1444 6.39798 1.3497 8.10144 0.974119C8.12356 0.969205 8.14391 0.957271 8.16533 0.948495C8.17515 0.957622 8.18533 0.964642 8.19586 0.969907C8.20534 0.957973 8.21552 0.947793 8.2264 0.940071C8.64551 0.883207 9.06287 0.810196 9.48619 0.78738C11.8938 0.659612 14.0195 1.3827 15.8848 2.89977C16.4861 3.38874 17.0207 3.94755 17.47 4.57095C18.3959 5.85706 19.0309 7.27304 19.2254 8.86559C19.2956 9.43844 19.3047 10.0116 19.2879 10.5866H19.2868C19.2868 10.5866 19.2837 10.5884 19.2819 10.5898C19.2837 10.5922 19.2854 10.5947 19.2875 10.5968C19.224 11.1781 19.1489 11.7579 18.9748 12.3178Z" fill="#09090B"/>
<path d="M17.8048 9.89051C15.2526 7.3583 12.699 4.8275 10.1492 2.29284C10.051 2.19526 10.0025 2.17841 9.8937 2.28722C8.02877 4.15075 6.15893 6.00936 4.28979 7.86902C3.61479 8.54051 2.93874 9.2113 2.26304 9.88243C2.18266 9.93333 2.11667 9.98633 2.23426 10.0678C2.33781 10.1664 2.44136 10.2647 2.5449 10.3633C2.59194 10.4146 2.63687 10.4679 2.68601 10.5171C5.08062 12.899 7.47698 15.28 9.86843 17.6658C9.98637 17.7834 10.0432 17.8069 10.1756 17.6742C11.5452 16.3003 12.9243 14.9356 14.2993 13.5667C14.8662 13.0022 15.4285 12.4336 15.9929 11.8667C16.61 11.2612 17.226 10.6547 17.8452 10.0516C17.9361 9.96281 17.8473 9.93298 17.8048 9.89051ZM10.4023 16.2389V14.6264C10.4016 14.0475 10.4016 13.4684 10.4009 12.8896V12.8766C10.4006 12.5772 10.4006 12.2781 10.3999 11.979C10.3999 11.979 10.3999 11.9788 10.3999 11.9783C10.3999 11.9783 10.4002 11.9773 10.3999 11.9769C10.4002 11.9766 10.3999 11.9762 10.3999 11.9762C10.4002 11.9759 10.3999 11.9755 10.3999 11.9755C10.4002 11.9752 10.3999 11.9748 10.3999 11.9748C10.4002 11.9741 10.4002 11.9738 10.3999 11.9734C10.4002 11.9727 10.4002 11.9724 10.3999 11.972C10.4002 11.972 10.3999 11.9713 10.3999 11.9713C10.4002 11.9706 10.4002 11.9696 10.3999 11.9692C10.4002 11.9681 10.4002 11.9671 10.3999 11.9664C10.3995 11.634 10.3992 11.3016 10.3985 10.9692V10.9657C10.3985 10.8319 10.3981 10.6985 10.3978 10.5648V10.5504C10.3978 10.4623 10.4016 10.4093 10.529 10.4097C11.7762 10.4135 13.0233 10.4142 14.2701 10.4146H14.2807C14.9002 10.4146 15.5197 10.4146 16.1393 10.4149C16.161 10.4149 16.1828 10.4188 16.2439 10.424C14.3059 12.3806 12.3747 14.2999 10.4023 16.2389ZM10.4037 3.7864C10.4817 3.80991 10.5227 3.86713 10.5698 3.91311C11.209 4.53932 11.8471 5.16693 12.4859 5.79349C12.5274 5.8342 12.5723 5.87106 12.6155 5.90967C12.6362 5.93003 12.6569 5.95004 12.6776 5.97005C12.7524 6.06412 12.8362 6.14941 12.9328 6.22137C12.9444 6.25226 12.9654 6.27367 12.9967 6.28455C13.0125 6.32 13.0377 6.34563 13.0735 6.36037C13.36 6.65101 13.6436 6.94411 13.9328 7.23194C14.5573 7.85253 15.1845 8.47066 15.8104 9.0895C15.8241 9.1246 15.8483 9.14952 15.8834 9.16321C15.895 9.1962 15.9171 9.21867 15.9501 9.23025C15.9638 9.2657 15.988 9.29027 16.0234 9.30396C16.0354 9.33661 16.0575 9.35872 16.0901 9.37066C16.1287 9.41945 16.1674 9.46789 16.2053 9.51562C16.1681 9.56231 16.1238 9.5423 16.0866 9.5423C14.2561 9.54265 12.4252 9.54019 10.5947 9.54406C10.4501 9.54441 10.3974 9.52405 10.3981 9.35837C10.4009 8.43099 10.4013 7.50327 10.4006 6.57589V6.56606C10.403 6.43865 10.4058 6.31263 10.4122 6.18522C10.4178 6.06622 10.4086 5.94583 10.4002 5.82508C10.4002 5.82508 10.4002 5.82484 10.4002 5.82437C10.4002 5.82437 10.3999 5.82402 10.4002 5.82367V5.8156C10.3995 5.17149 10.3985 4.52773 10.3981 3.88363C10.3981 3.85555 10.4013 3.82711 10.4037 3.7864ZM9.56621 3.85133C9.58797 3.8917 9.5957 3.93803 9.59359 3.99349C9.59254 4.02052 9.59078 4.05703 9.59956 4.08511V4.47508C9.57323 4.51791 9.59324 4.57933 9.59324 4.62567C9.58938 6.21646 9.59008 7.80725 9.59008 9.39803C9.59008 9.42401 9.59148 9.44963 9.59464 9.4742C9.58376 9.51913 9.55217 9.54581 9.46126 9.54546C7.63178 9.53984 5.8023 9.5416 3.97247 9.5416H3.83944C5.75035 7.62261 7.63389 5.74083 9.56621 3.85133ZM9.60026 16.1126C9.60026 16.128 9.59499 16.1431 9.58692 16.1898C7.64091 14.2841 5.73561 12.3697 3.80644 10.4132H4.82298C6.36041 10.4132 7.8982 10.4139 9.43599 10.4121C9.53918 10.4121 9.60447 10.4079 9.60412 10.5522C9.5985 12.4055 9.60061 14.2589 9.60026 16.1126Z" fill="#09090B"/>
<path d="M7.2373 15.9626C6.85751 15.964 6.47736 15.9665 6.09756 15.9581C4.93992 15.9317 4.10873 15.0918 4.09433 13.9359C4.08977 13.5561 4.09293 13.1763 4.09153 12.7961C4.09153 12.7393 4.10276 12.6789 4.05432 12.6315C3.83037 12.4132 3.60748 12.1945 3.35791 11.9502C3.3888 12.6898 3.34036 13.3911 3.3874 14.0921C3.48533 15.5456 4.57873 16.6211 6.03333 16.6664C6.69323 16.6868 7.35419 16.6724 8.01479 16.6731C8.04077 16.6731 8.07412 16.6829 8.09096 16.6401C7.88106 16.4418 7.66799 16.2434 7.45879 16.0409C7.39456 15.9784 7.32365 15.9623 7.2373 15.9626Z" fill="#09090B"/>
<path d="M12.8221 4.04014C13.1906 4.03593 13.5588 4.03418 13.927 4.04155C14.9794 4.06191 15.8506 4.85098 15.965 5.89805C16.0107 6.31681 15.9735 6.73943 15.9798 7.15994C15.9805 7.21751 15.9605 7.28104 16.0001 7.33054C16.2079 7.58678 16.4501 7.80862 16.699 8.03256C16.6899 7.25998 16.7688 6.49442 16.6534 5.73518C16.467 4.50734 15.5133 3.52837 14.3395 3.37357C13.556 3.27002 12.7666 3.35813 11.98 3.32513C12.1818 3.5389 12.3735 3.73617 12.5581 3.9394C12.6325 4.02119 12.7164 4.04155 12.8221 4.04014Z" fill="#09090B"/>
<path d="M4.00033 7.39125C4.07088 7.31859 4.09299 7.23961 4.09124 7.13992C4.08527 6.80681 4.08492 6.4737 4.08738 6.14059C4.09686 4.94574 4.96842 4.0633 6.16432 4.04118C6.52656 4.03487 6.88881 4.04224 7.25106 4.04189C7.303 4.04189 7.37531 4.05452 7.40375 4.02679C7.6319 3.80039 7.85199 3.56626 8.06962 3.33881C7.38058 3.33881 6.68452 3.30932 5.99162 3.34513C4.61986 3.41638 3.53664 4.47363 3.39413 5.84118C3.31901 6.56391 3.38079 7.2891 3.39097 8.03466C3.59385 7.81984 3.79463 7.60326 4.00033 7.39125Z" fill="#09090B"/>
<path d="M16.6948 13.1394C16.7008 12.7519 16.6963 12.3644 16.6963 11.933C16.4737 12.1622 16.2645 12.3437 16.089 12.5592C15.9876 12.6203 15.9633 12.7122 15.963 12.8267C15.9623 13.3002 16.0079 13.7772 15.9437 14.2465C15.811 15.2164 15.0233 15.9156 14.0345 15.9563C13.62 15.9735 13.2044 15.9598 12.7891 15.9605C12.7259 15.9609 12.6624 15.9496 12.6094 16.0047C12.3971 16.2248 12.1819 16.4424 11.9478 16.6815C12.7417 16.6618 13.5119 16.7117 14.2809 16.6478C14.3852 16.6394 14.4894 16.6176 14.5916 16.5944C15.739 16.3329 16.6464 15.2595 16.6601 14.1493C16.6668 14.1331 16.6738 14.1177 16.6738 14.0994V14.0699C16.7212 13.7611 16.6903 13.4494 16.6948 13.1394Z" fill="#09090B"/>
</g>
<path d="M27.0964 18.2727V6.27273H29.1191V7.71591H29.2384C29.3445 7.50379 29.4941 7.27841 29.6873 7.03977C29.8805 6.79735 30.1418 6.59091 30.4714 6.42045C30.8009 6.24621 31.2214 6.15909 31.7327 6.15909C32.407 6.15909 33.0149 6.33144 33.5566 6.67614C34.1021 7.01705 34.5339 7.52273 34.8521 8.19318C35.174 8.85985 35.335 9.67803 35.335 10.6477C35.335 11.6061 35.1778 12.4205 34.8634 13.0909C34.549 13.7614 34.121 14.2727 33.5793 14.625C33.0377 14.9773 32.424 15.1534 31.7384 15.1534C31.2384 15.1534 30.8236 15.0701 30.4941 14.9034C30.1646 14.7367 29.8994 14.536 29.6986 14.3011C29.5017 14.0625 29.3483 13.8371 29.2384 13.625H29.1532V18.2727H27.0964ZM29.1134 10.6364C29.1134 11.2008 29.193 11.6951 29.3521 12.1193C29.5149 12.5436 29.7479 12.875 30.0509 13.1136C30.3577 13.3485 30.7289 13.4659 31.1646 13.4659C31.6191 13.4659 31.9998 13.3447 32.3066 13.1023C32.6134 12.8561 32.8445 12.5208 32.9998 12.0966C33.1589 11.6686 33.2384 11.1818 33.2384 10.6364C33.2384 10.0947 33.1608 9.61364 33.0055 9.19318C32.8502 8.77273 32.6191 8.44318 32.3123 8.20455C32.0055 7.96591 31.6229 7.84659 31.1646 7.84659C30.7252 7.84659 30.3521 7.96212 30.0452 8.19318C29.7384 8.42424 29.5055 8.74811 29.3464 9.16477C29.1911 9.58144 29.1134 10.072 29.1134 10.6364ZM38.8332 3.36364V15H36.7764V3.36364H38.8332ZM43.1396 15.1761C42.5866 15.1761 42.0885 15.0777 41.6453 14.8807C41.2059 14.6799 40.8574 14.3845 40.5998 13.9943C40.346 13.6042 40.2192 13.1231 40.2192 12.5511C40.2192 12.0587 40.3101 11.6515 40.4919 11.3295C40.6737 11.0076 40.9218 10.75 41.2362 10.5568C41.5506 10.3636 41.9048 10.2178 42.2987 10.1193C42.6964 10.017 43.1074 9.94318 43.5317 9.89773C44.043 9.8447 44.4578 9.79735 44.776 9.75568C45.0942 9.71023 45.3252 9.64205 45.4692 9.55114C45.6169 9.45644 45.6907 9.31061 45.6907 9.11364V9.07955C45.6907 8.65152 45.5638 8.32008 45.3101 8.08523C45.0563 7.85038 44.6907 7.73295 44.2135 7.73295C43.7097 7.73295 43.3101 7.8428 43.0146 8.0625C42.7229 8.2822 42.526 8.54167 42.4237 8.84091L40.5032 8.56818C40.6548 8.03788 40.9048 7.5947 41.2532 7.23864C41.6017 6.87879 42.0279 6.60985 42.5317 6.43182C43.0354 6.25 43.5923 6.15909 44.2021 6.15909C44.6226 6.15909 45.0411 6.20833 45.4578 6.30682C45.8745 6.4053 46.2551 6.56818 46.5998 6.79545C46.9445 7.01894 47.221 7.32386 47.4294 7.71023C47.6415 8.09659 47.7476 8.57955 47.7476 9.15909V15H45.7703V13.8011H45.7021C45.5771 14.0436 45.401 14.2708 45.1737 14.483C44.9502 14.6913 44.668 14.8598 44.3271 14.9886C43.99 15.1136 43.5942 15.1761 43.1396 15.1761ZM43.6737 13.6648C44.0866 13.6648 44.4445 13.5833 44.7476 13.4205C45.0506 13.2538 45.2835 13.0341 45.4464 12.7614C45.6131 12.4886 45.6964 12.1913 45.6964 11.8693V10.8409C45.632 10.8939 45.5222 10.9432 45.3669 10.9886C45.2154 11.0341 45.0449 11.0739 44.8555 11.108C44.6661 11.142 44.4786 11.1723 44.293 11.1989C44.1074 11.2254 43.9464 11.2481 43.8101 11.267C43.5032 11.3087 43.2286 11.3769 42.9862 11.4716C42.7438 11.5663 42.5525 11.6989 42.4123 11.8693C42.2722 12.036 42.2021 12.2519 42.2021 12.517C42.2021 12.8958 42.3404 13.1818 42.6169 13.375C42.8934 13.5682 43.2457 13.6648 43.6737 13.6648ZM51.5526 9.88636V15H49.4957V6.27273H51.4617V7.75568H51.5639C51.7647 7.26705 52.0848 6.87879 52.5242 6.59091C52.9673 6.30303 53.5147 6.15909 54.1662 6.15909C54.7685 6.15909 55.2931 6.28788 55.7401 6.54545C56.1908 6.80303 56.5393 7.17614 56.7855 7.66477C57.0355 8.15341 57.1586 8.74621 57.1548 9.44318V15H55.098V9.76136C55.098 9.17803 54.9465 8.72159 54.6435 8.39205C54.3442 8.0625 53.9295 7.89773 53.3992 7.89773C53.0393 7.89773 52.7192 7.97727 52.4389 8.13636C52.1624 8.29167 51.9446 8.51705 51.7855 8.8125C51.6302 9.10795 51.5526 9.46591 51.5526 9.88636ZM60.9826 9.88636V15H58.9257V6.27273H60.8917V7.75568H60.9939C61.1947 7.26705 61.5148 6.87879 61.9542 6.59091C62.3973 6.30303 62.9447 6.15909 63.5962 6.15909C64.1985 6.15909 64.7231 6.28788 65.1701 6.54545C65.6208 6.80303 65.9693 7.17614 66.2155 7.66477C66.4655 8.15341 66.5886 8.74621 66.5848 9.44318V15H64.528V9.76136C64.528 9.17803 64.3765 8.72159 64.0735 8.39205C63.7742 8.0625 63.3595 7.89773 62.8292 7.89773C62.4693 7.89773 62.1492 7.97727 61.8689 8.13636C61.5924 8.29167 61.3746 8.51705 61.2155 8.8125C61.0602 9.10795 60.9826 9.46591 60.9826 9.88636ZM69.6228 15.125C69.2781 15.125 68.9826 15.0038 68.7364 14.7614C68.4902 14.5189 68.369 14.2235 68.3728 13.875C68.369 13.5341 68.4902 13.2424 68.7364 13C68.9826 12.7576 69.2781 12.6364 69.6228 12.6364C69.9561 12.6364 70.2459 12.7576 70.4921 13C70.7421 13.2424 70.869 13.5341 70.8728 13.875C70.869 14.1061 70.8084 14.3163 70.691 14.5057C70.5773 14.6951 70.4258 14.8466 70.2364 14.9602C70.0508 15.0701 69.8463 15.125 69.6228 15.125ZM76.54 15.1705C75.665 15.1705 74.9093 14.9886 74.273 14.625C73.6404 14.2576 73.1536 13.7386 72.8127 13.0682C72.4718 12.3939 72.3014 11.6004 72.3014 10.6875C72.3014 9.78977 72.4718 9.00189 72.8127 8.32386C73.1574 7.64205 73.6385 7.11174 74.2559 6.73295C74.8733 6.35038 75.5987 6.15909 76.4321 6.15909C76.9699 6.15909 77.4775 6.24621 77.9548 6.42045C78.4358 6.59091 78.8601 6.85606 79.2275 7.21591C79.5987 7.57576 79.8904 8.03409 80.1025 8.59091C80.3146 9.14394 80.4207 9.80303 80.4207 10.5682V11.1989H73.2673V9.8125H78.4491C78.4453 9.41856 78.3601 9.06818 78.1934 8.76136C78.0267 8.45076 77.7938 8.20644 77.4946 8.02841C77.1991 7.85038 76.8544 7.76136 76.4605 7.76136C76.04 7.76136 75.6707 7.86364 75.3525 8.06818C75.0343 8.26894 74.7862 8.53409 74.6082 8.86364C74.4339 9.18939 74.3449 9.54735 74.3411 9.9375V11.1477C74.3411 11.6553 74.4339 12.0909 74.6196 12.4545C74.8052 12.8144 75.0646 13.0909 75.398 13.2841C75.7313 13.4735 76.1214 13.5682 76.5684 13.5682C76.8677 13.5682 77.1385 13.5265 77.3809 13.4432C77.6233 13.3561 77.8336 13.2292 78.0116 13.0625C78.1896 12.8958 78.3241 12.6894 78.415 12.4432L80.3355 12.6591C80.2142 13.1667 79.9832 13.6098 79.6423 13.9886C79.3052 14.3636 78.8733 14.6553 78.3468 14.8636C77.8203 15.0682 77.218 15.1705 76.54 15.1705ZM81.8407 15V6.27273H83.8351V7.72727H83.926C84.0851 7.22348 84.3578 6.83523 84.7442 6.5625C85.1343 6.28598 85.5794 6.14773 86.0794 6.14773C86.193 6.14773 86.3199 6.15341 86.4601 6.16477C86.604 6.17235 86.7233 6.18561 86.818 6.20455V8.09659C86.7309 8.06629 86.5926 8.03977 86.4032 8.01705C86.2176 7.99053 86.0377 7.97727 85.8635 7.97727C85.4885 7.97727 85.1513 8.05871 84.8521 8.22159C84.5567 8.38068 84.3237 8.60227 84.1532 8.88636C83.9828 9.17045 83.8976 9.49811 83.8976 9.86932V15H81.8407Z" fill="#09090B"/>
<defs>
<clipPath id="clip0_7124_1011">
<rect width="20.0393" height="20" fill="white"/>
</clipPath>
</defs>
</svg>
